<svg width="83" height="79" viewBox="0 0 83 79" fill="none" xmlns="http://www.w3.org/2000/svg">
<circle cx="25.4956" cy="25.4956" r="25.4956" transform="matrix(-0.866025 -0.5 0.866025 -0.5 40.5481 71.0737)" fill="#F6B34E"/>
<rect x="71.7732" y="45.6665" width="3.91637" height="11.2892" transform="rotate(179.988 71.7732 45.6665)" fill="#F6B34E"/>
<rect x="12.7791" y="45.5767" width="3.47395" height="11.8312" transform="rotate(-179.648 12.7791 45.5767)" fill="#F6B34E"/>
<circle cx="25.4956" cy="25.4956" r="25.4956" transform="matrix(-0.866025 -0.5 0.866025 -0.5 40.5945 59.2676)" fill="url(#paint0_linear_215_313)"/>
<path d="M31.919 38.9159L35.7255 41.1135L38.4546 39.5378L40.5014 40.7196L37.7723 42.2952L41.6146 44.5136L44.3437 42.9379L47.2883 44.638L51.777 42.0465L48.8324 40.3464L56.6966 35.806L52.8543 33.5877L44.9901 38.128L43.0151 36.9878L44.8106 35.9511C52.172 31.701 53.2852 27.8241 47.7551 24.6313C42.4046 21.5421 36.3718 21.9153 28.4358 26.4972L22.1517 30.1253L34.6482 37.3402L31.919 38.9159ZM32.745 28.529C37.1259 25.9996 40.1064 25.5642 43.051 27.2643C46.2469 29.1095 45.3851 31.0998 41.1837 33.5255L39.101 34.7279L30.5545 29.7936L32.745 28.529Z" fill="#D17E00"/>
<defs>
<linearGradient id="paint0_linear_215_313" x1="25.4956" y1="0" x2="25.4956" y2="50.9912" gradientUnits="userSpaceOnUse">
<stop stop-color="#F9D97B"/>
<stop offset="1" stop-color="#F6B34E"/>
</linearGradient>
</defs>
</svg>
